P1
# Created by GIMP version 2.10.34 PNM plug-in
10 10
0101010101011011111101111101111011101010011111010011100111110101011101
011111111001011101011010111010