P1
# Created by GIMP version 2.10.34 PNM plug-in
10 10
1010101010010101010100000000001000101010010101000110001010100000000000
000000000001010101011010101010