P1
# Created by GIMP version 2.10.34 PNM plug-in
30 30
0000000000000000000000000000000000000000000000000000000000000000100000
0000000000000000000000011111111111111111111111110000011111111111111111
1111111100000111111111111111111111111100000111000000000101000000111100
0001110000000000000000000111000001111000000000000011000111000001111111
1100001100110001110000011111110000001100000001111000011111000000000000
1000011110000111100000110000011100011110000111000011110011111110011110
0001111000111100110001000111100001111000011100100001000111100001111000
1111001100010001111000001110001111001111110001111000001110001111000111
0000011110000011100011110000000000111100000011100011110000000000111100
0000111000111100001010001111000000111000011100000101001110000000111000
0111100010100011100000001111111111100001000011100011001100011111111000
0000111000100010000111111111111111111000110000001111111111111111110000
111110010000101111111111110011011110100001010000001111110011