P1
# Created by GIMP version 2.10.34 PNM plug-in
10 10
1010101010010101010110101010100101010101101010101001010101011010101010
010101010110101010100101010101