P1
# Created by GIMP version 2.10.34 PNM plug-in
10 10
0000000000000000000000000000000000000000010000000001111111000100000100
000000000000000000000000000000