P1
# Created by GIMP version 2.10.34 PNM plug-in
30 30
0000000000000000000000000000000000000000000000000000000000000000000000
0000000000000000000000000000000000001101101111110000000000000000011111
1111111100000111111111110111111111111110000111001000000001101111011110
0001110000000000000000000111100001110000000000000000000111100001111000
0011001010110000111000011110000011001111110001110000011110000000001001
0100001110000011000000000010010100011110000011100110000011111100011110
0001111000000000000000000011100000111000000100000000000011110001111000
0001000011110000111100001110000000000010010000011100011100001110000011
1100000111000011100010100000000000000111000011100011100000000000001110
0000111000000000000000000011110000111000000010111111111111110000111111
1111111111111111111100001111111111111111111111111100001111111111101000
0000001010000000000000000000000000000000000000000000000000000000000000
000000000000000000000000000000000000000000000000000000000000