P1
# Created by GIMP version 2.10.34 PNM plug-in
20 20
0101010100110000010110010100110000000010011101000100000001000000110001
0000001000001110000000000000000000001011000111111011110001010000011000
1101001011010000111001011001000100000000010010000111101110101110100001
1011101010101110000100010010100110000111101101100001101111001110010111
1100000111111111000000011000000000010011001001110000011101000011110100
00000001111000100111111111111011101000111111111100