P1
# Created by GIMP version 2.10.34 PNM plug-in
15 15
1000000000000000111111111111100100000000000100101110001000100101010010
1001001011100010001001000001000001001000010100001001001001001101001010
1000111110010010000101000010000000111000011111111100011000000000000101
000011000100010