P1
# Created by GIMP version 2.10.34 PNM plug-in
10 10
1010101000010100000010000010000100010101100000101000010000001010100010
000100000100001010100001000101