P1
# Created by GIMP version 2.10.34 PNM plug-in
30 30
0000000000000000000000000000000000000000000000000000000000000000100000
0000000000000000000000011111111111111111111111110000011111111111111111
1111111100000111111111111111111111111100000111000000000101000000111100
0001110000000000000000000111000001111000000000000011000111000001111111
1100001100110001110000011111111110001100000001111000011111111110000000
1000011110000111111111110000011100011110000111111111110011111110011110
0001111111101100110001000111100001111111111100100001000111100001111111
1111001100010001111000001111111111001111110001111000001111111111000111
0000011110000011111111110000000000111100000011111111110000000000111100
0000111111111100001010001111000000111111111100000101001110000000111111
1111100010100011100000001111111111100001000011100000001100011111111000
0000111000000000000000111111111111111000000000000000111111111111110000
000000000000111111111111110000000000000000000000001111110000