P1
# Created by GIMP version 2.10.34 PNM plug-in
10 10
1010101010100100000010000010000100010101100000101100011000001010100010
100000000110100010100101000101