P1
# Created by GIMP version 2.10.34 PNM plug-in
40 40
0000000000000000011000000000000000000000000001000000000011100000000000
0000000000000111110000000111001100000011100000000000111111110000111001
1000000000111100000001100110111100110011100000000010110000000111110111
0110010010000000000111100000000111100011011001111000000000110110000000
0110011010011001100000000000110000001100011000111111000010000000000000
0000001110001111111110000000000000000000000001111000001100000000000000
0011100000001111101000001100000000000000111111000000111110000000000000
0000000001110011000000000000000000000000000000000111111000000000000000
0000000000000000000011110000011111111111000000001000000000011100000011
1001111010111111000110000000011000000110000000000010110010011101000000
0000001100000000000010110010000010000110000000111000000000001110111000
1100001110000000001100000000000110111100110001111110000000010000000000
0010111100000000110100000000011111111000111111000000000001000000000011
1111110000000000000000011111000000000110000000000000000000000001001000
0000000000000000000000000000000000000000001000000000000000000000001011
1110000001111001100000000000110000111111111111100111111100000000000111
0011100000000011100011110011100000011100011111110000001000000011001111
1110100000001111110000011100000011000000001110000000111001100011011000
0001100000000111000000111001111111001100000010000000110011000011100111
1110000100000010000000100001100001100001111100001000001100000110000001
0001000111111111101000001111111100000000000100111001000111110000011111
1100000000000111100011000001111000000000011000000000001100001100000001
100000000001100000000000000000000000000000000000000110000000