P1
# Created by GIMP version 2.10.34 PNM plug-in
30 30
0000000000000000000000000000000000000000000000000000000000000000100100
0000000000000000000000011111111111111111111111110000011111111111111111
1111111100000011111111111111111111111100000000000000000101000000111100
0000000000000000000000000111000000000000000000000011000111000000000111
1100001100110001110000011111111110001100000001111000011111111110000000
1000011110000111111111110000011100011110000111000011110011111110011110
0001111000111100110001000111100001111000011100100001000111100001111000
1111001100010001111000001110001111001111110001111000001110001111000111
0000011110000011100011110000000000111100000011100011110000000000111100
0000111000111100000000001111000000111000011100000000001110000000111000
0111100000000011100000001111111111100000000011100011001111111111111000
0000111000100011111111111111111111111000110000001111111111111111110000
111110000000001111111111110011011110000000000000001111110011