P1
# Created by GIMP version 2.10.34 PNM plug-in
20 20
0 0 0 0 0 0 0 0 0 0 0 0 0 0 0 0 0 0 0 0
0 1 1 1 1 1 1 1 1 1 1 1 1 0 0 0 0 0 0 0
0 1 1 1 1 1 1 1 1 1 1 1 1 0 0 0 0 0 0 0
0 1 1 1 0 0 0 1 1 1 0 1 1 0 0 1 1 1 1 1
0 1 1 1 1 1 0 0 1 1 0 1 1 0 0 1 1 1 1 1
0 1 1 1 1 1 1 0 0 1 1 1 0 0 0 1 1 0 0 0
0 1 1 0 0 0 1 0 0 0 1 1 0 0 0 1 1 0 0 0
0 1 1 1 1 1 1 1 1 1 1 1 0 0 0 1 1 1 1 1
0 0 0 1 1 1 1 0 0 0 0 0 0 0 0 1 1 1 1 0
0 0 0 0 0 0 0 0 0 0 0 0 0 0 0 1 1 0 0 0
1 0 0 0 0 0 0 0 0 0 1 1 1 1 0 0 0 0 0 0
1 0 0 1 0 0 0 1 1 0 1 1 1 1 0 0 0 0 0 0
1 0 0 1 1 0 1 1 0 0 0 0 0 0 0 0 0 1 1 0
0 0 0 1 1 0 0 0 0 0 0 1 1 1 1 1 0 1 1 0
0 0 0 1 1 0 0 1 1 1 1 1 1 1 1 1 0 0 0 0
0 0 0 1 1 0 0 1 1 1 0 0 0 0 1 1 0 0 0 0
0 0 0 1 1 0 0 1 1 0 0 0 0 0 1 1 0 0 1 1
0 0 0 1 1 0 0 1 1 0 0 0 0 0 0 1 1 1 1 1
0 0 0 1 1 0 0 1 1 0 0 1 0 0 0 0 0 0 1 1
0 0 0 1 1 0 0 1 1 1 1 1 1 1 1 1 1 1 1 1