P1
# Created by GIMP version 2.10.34 PNM plug-in
20 20
11111111111110011111
11111111111110011111
10000000111110011111
10000000011110011111
10011110011111111111
10011110011111110000
11000000011111110000
11000001111111111111
11111111111111111111
11111111111111111111
11111111111111111111
11111000000011111111
11111000000011111111
11111000011111111111
11111000011111111111
11111001111110000000
11100001111110000000
00000001111110011110
00000001111110011110
11111111111110000000