P1
# Created by GIMP version 2.10.34 PNM plug-in
20 20
0000000000000000000001011100111110000000011111111010000000000111000100
0110001101010111001101000100110101111001110001000001100010001100011000
0111111111100000111100011100000000001110000000000001100110001000000000
1001000000100100011011110000001001101100000000011000011000000000000110
0000000001111110000000100000110100110000010110011001011100000010000011
11110111100000000010010010101000011000111111111100