P1
# Created by GIMP version 2.10.34 PNM plug-in
50 50
1111111111111111111111111111111111111111111111111111111111111111111111
1111111111111111111111111111111111111111111111111111111101111111111111
1111111111111111111111111111111111000001111111111111111111111111111111
1111111111111000000111111111111111111111111111111111111111111000000000
1111111111111111111111111111111111111111000000000111111111111111111111
1111111100000111111000000000011111111111111111111111111100000001111110
0000000011111111111111111111111111100000000011110000000001111111111111
1111111111111110000000011111000000011111111111111111111111111111100000
0001111110000011111111111111111111111111111100000000111111110011111111
1100001111111111111111110000000111111111111111111111000001111111111111
1111000000111111111111111111111000000111111111111111110000001111111111
1111111111110000001111111111111111000000111111111111111111111100000011
1111111111111100000001101111100011111111110000001111111111111111000000
0000000000000011111111000000111111111111111100000000000000000000111111
1100000011111111111111111000000000000000000001111111000000011111111111
1111100000000000000000000111111110000001111111111111111110000000000000
0000011111111000000111111111111111111110000000000000000111101000000000
0000111111000000000000000000000000000000000000000000000000000000000000
0000000000000000000000000000000000000000000000000000000000000000000000
0000000000000000000000000000000000000000000000000000000000000000000000
0000000000000000000000000000000000000000000000000000000000000000000000
0000000000000000000000000000000000000000000000000000000000000000000000
0000000000110000000000000000000000001111111111101111111100001111111111
1111111000000000111111111111111111111111111111111111100000000000001111
1111111111111111111111111111111000000000000000111111111111111111111111
1111111110000000000000000111111111111111111111111111111111100000000000
0000111111111111111111011111111111111110000000000000111111111111111111
0000111111111111111000000000011111111111111111111100000111111111111111
0000001111111111111111111111100000001111111111111111111111111111111111
1111111111000000111111111111111111111111111111111111111111110000000111
1111111111111111111111111111100001111111100000111111111111111111111111
1111111110000111111110000011111111111111111111111111111111100001111111
1110111111111111111111111111111111111110000111111111111111111111111111
1111111111111111111111111111111111111111111111111111111111111111111111
1111111111111111111111111111111111111111111111111111111111111111111111
11111111111111111111111111111111111111111111111111