P1
# Created by GIMP version 2.10.34 PNM plug-in
50 50
0000011111111111111111111111111111111111111000000000000011111111111111
1111111111111111111111110000000000001111111111111111111111111111111111
1110000000000000111111111111111111111111111111111111110000000000001111
1111111111111111111111111111111111100000000001111111111111111111111111
1111111111111111000000001111111111111111111111111111111111111111111111
0000111111111111111111111111111111111111111111111111111111111111111111
1111111111111111111111111111111111111111111111111111111111111111111111
1111111111111111111111111111111111111111111111111111111111111111111111
1111111111111111111111111111111111111111111111111111111111111111111111
1111111111111111111111111111111111111111111111111111111111111111111111
1111111111111111111111111111111111111111111111111111111111111111111111
1111111111111111111111111111111111111111111111111111111111111111111111
1111111111111111111111111111111111111111111111111111111111111111111111
1111111111111111111111111111111111111111111111111111111111111111111111
1111111111111111111111111111111111111111111111111111111111111111111111
1111111111111111111111111111111111111111111111111111111111111111111111
1111111111111111111111111111111111111111111111111111111111111111111111
1111111111111111111111111111111111111111111111111111111111111111111111
1111111111111111111111111111111111111111111111111111111111111111111111
1111111111111111111111111111111111111111111111111111111111111111111111
1111111111111111111111111111111111111111111111111111111111111111111111
1111111111111111111111111111111111111111111111111111111111111111111111
1111111111111111111111111111111111111111111111111111111111111111111111
1111111111111111111111111111111111111111111111111111111111111111111111
1111111111111111111111111111111111111111111111111111111111111111111111
1111111111111111111111111111111111111111111111111111111111111111111111
1111111111111111111111111111111111111111111111111111111111111111111111
1111111111111111111111111111111111111111111111111111111111111111111111
1111111111111111111111111111111111111111111111111111111111111111111111
1111111111111111111111111111111111111111111111111111111111111111111111
1111111111111111111111111111111111111111111111111100011111111111111111
1111111111111111111111111111110000111111111111111111111111111111111111
1111110000000001111111111111111111111111111111111111111100000000001111
1111111111111111111111111111111111000000000001111111111111111111111111
1111111111111100000000000011111111111111111111111111111111111111000000
00000111111111111111111111111111111111111111000000